<svg width="24" height="24" viewBox="545.5 14 24 24" fill="none" xmlns="http://www.w3.org/2000/svg">
<path d="M561 16V20M553 16V20" stroke="#E2A028" stroke-width="2" stroke-linecap="round" stroke-linejoin="round"/>
<path d="M565.899 22C565.771 20.6999 565.482 19.8247 564.828 19.1716C563.657 18 561.771 18 558 18H556C552.229 18 550.343 18 549.172 19.1716C548 20.3431 548 22.2288 548 26V28C548 31.7712 548 33.6569 549.172 34.8284C549.98 35.6366 551.128 35.8873 553 35.965" stroke="#E2A028" stroke-width="2" stroke-linecap="round" stroke-linejoin="round"/>
<path d="M548 24H553" stroke="#E2A028" stroke-width="2" stroke-linecap="round" stroke-linejoin="round"/>
<path d="M561 36C564.314 36 567 33.3137 567 30C567 26.6863 564.314 24 561 24C557.686 24 555 26.6863 555 30C555 33.3137 557.686 36 561 36Z" stroke="#E2A028" stroke-width="2" stroke-linecap="round" stroke-linejoin="round"/>
<path d="M561 27V30L563 31" stroke="#E2A028" stroke-width="2" stroke-linecap="round" stroke-linejoin="round"/>
</svg>